<svg xmlns="http://www.w3.org/2000/svg" viewBox="0 0 64 64">
  <defs>
    <linearGradient id="bg" x1="0" x2="1" y1="0" y2="1">
      <stop offset="0%" stop-color="#facc15"/>
      <stop offset="100%" stop-color="#f59e0b"/>
    </linearGradient>
  </defs>
  <rect width="64" height="64" rx="16" fill="url(#bg)"/>
  <circle cx="50" cy="14" r="7" fill="#fff7ed"/>
  <path d="M22 18h20a6 6 0 0 1 6 6v2H16v-2a6 6 0 0 1 6-6Z" fill="#fff7ed"/>
  <path d="M20 28h24v18a4 4 0 0 1-4 4H24a4 4 0 0 1-4-4V28Z" fill="#fffbeb"/>
  <path d="M28 33h12v4H32v3h7v4h-7v6h-4V33Z" fill="#78350f"/>
</svg>
